<svg xmlns="http://www.w3.org/2000/svg" width="500" height="500" viewBox="0 0 500 500" version="1.1"><path d="M 216.500 48.968 C 132.113 61.389, 64.117 123.957, 44.488 207.250 L 41.719 219 20.859 219 L 0 219 0 221.500 L 0 224 56.607 224 C 109.971 224, 113.176 224.100, 112.547 225.739 C 109.733 233.071, 108.318 256.447, 109.853 270.250 L 110.604 277 57.052 277.015 C 27.598 277.024, 2.893 277.415, 2.152 277.885 C 1.410 278.355, 0.966 279.586, 1.165 280.620 C 1.502 282.375, 2.868 282.518, 21.763 282.771 C 41.941 283.041, 42 283.048, 42.016 285.271 C 42.081 294.505, 51.794 326.340, 59.324 342 C 89.811 405.400, 149.289 448.831, 218.784 458.440 C 233.182 460.430, 259.437 460.454, 274.424 458.489 C 322.765 452.152, 369.713 427.167, 402.182 390.500 C 412.588 378.747, 426.205 358.379, 433.278 343.985 C 440.080 330.141, 447.079 309.556, 450.187 294.250 L 452.471 283 473.613 283 C 491.818 283, 494.941 282.777, 496.090 281.392 C 497.224 280.025, 497.138 279.574, 495.521 278.392 C 493.948 277.242, 483.801 277, 437.059 277 L 380.500 277 380.464 258.750 C 380.432 242.856, 379.509 232.976, 377.381 225.750 C 376.894 224.097, 380.152 224, 436.002 224 L 495.139 224 494.820 221.750 C 494.501 219.506, 494.447 219.499, 472.883 219.231 L 451.266 218.962 449.537 210.231 C 444.191 183.244, 428.775 150.217, 410.688 127 C 376.979 83.731, 328.082 55.605, 274.199 48.492 C 258.951 46.479, 231.891 46.702, 216.500 48.968 M 225.589 51.100 C 151.522 58.908, 86.570 108.229, 58.475 178 C 54.376 188.181, 47 213.606, 47 217.556 C 47 218.826, 51.583 218.991, 80.604 218.763 L 114.208 218.500 116.952 211 C 133.360 166.157, 171.334 133.529, 219 123.321 C 225.697 121.886, 231.635 121.521, 247 121.598 C 265.390 121.690, 267.165 121.870, 278.190 124.764 C 299.201 130.279, 318.508 140.299, 334.985 154.241 C 352.070 168.697, 367.830 192.143, 374.645 213.243 L 376.500 218.986 411.250 218.993 L 446 219 445.991 216.750 C 445.976 212.992, 441.180 195.107, 437.343 184.500 C 416.096 125.761, 367.777 78.719, 309.524 60.059 C 282.408 51.372, 252.891 48.222, 225.589 51.100 M 247.095 84.750 C 246.450 91.763, 245.706 98.513, 245.442 99.750 C 245.031 101.678, 245.378 102, 247.874 102 C 251.270 102, 251.972 100.690, 252.070 94.168 C 252.210 84.895, 252.730 84.962, 262.406 95.483 C 267.266 100.767, 271.378 104.955, 271.544 104.789 C 271.710 104.623, 272.331 99.765, 272.924 93.994 C 273.517 88.222, 274.246 81.641, 274.545 79.370 C 275.064 75.413, 274.963 75.222, 272.153 74.809 C 269.353 74.398, 269.192 74.580, 268.610 78.829 C 268.274 81.277, 268 85.016, 268 87.140 C 268 89.263, 267.609 91, 267.130 91 C 266.652 91, 262.489 86.731, 257.880 81.513 C 253.271 76.295, 249.223 72.020, 248.884 72.013 C 248.545 72.006, 247.740 77.737, 247.095 84.750 M 220.250 74.229 C 213.280 75.152, 213 75.294, 213 77.886 C 213 80.543, 215.949 104.282, 216.326 104.659 C 216.687 105.020, 235.971 102.363, 236.447 101.886 C 236.708 101.626, 236.652 100.387, 236.325 99.134 C 235.751 96.939, 235.457 96.880, 228.364 97.545 L 221 98.235 221 95.167 C 221 92.157, 221.113 92.087, 227.053 91.414 C 232.847 90.759, 233.094 90.617, 232.803 88.115 C 232.511 85.594, 232.265 85.500, 226 85.500 C 219.692 85.500, 219.491 85.421, 219.190 82.816 C 218.886 80.184, 219.015 80.120, 225.940 79.437 C 232.886 78.753, 233 78.695, 233 75.871 C 233 72.598, 232.776 72.569, 220.250 74.229 M 184.575 82.579 C 182.416 83.369, 180.457 84.209, 180.221 84.445 C 179.697 84.970, 187.939 110.160, 189.024 111.349 C 189.450 111.816, 190.782 111.887, 191.984 111.505 C 194.205 110.800, 194.206 110.775, 192.425 104.379 C 191.937 102.626, 192.603 101.887, 196.263 100.115 C 200.650 97.991, 203 94.777, 203 90.903 C 203 88.053, 200.318 83.241, 198.055 82.030 C 195.401 80.609, 189.271 80.859, 184.575 82.579 M 289.455 83.455 C 285.538 87.371, 286.160 91.187, 291.674 97.083 C 295.946 101.650, 296.212 102.217, 294.759 103.670 C 292.850 105.579, 289.375 104.930, 286.333 102.096 C 284.235 100.141, 284.183 100.141, 282.465 102.038 C 281.007 103.650, 280.938 104.220, 282.039 105.547 C 285.807 110.087, 294.975 111.461, 299.116 108.107 C 300.890 106.671, 301.455 105.208, 301.455 102.050 C 301.455 98.438, 300.895 97.370, 297.227 93.984 C 292.553 89.668, 292.255 88.863, 294.610 86.909 C 295.975 85.776, 296.841 85.912, 300.302 87.808 C 303.896 89.777, 304.560 89.868, 305.856 88.572 C 307.093 87.335, 307.114 86.842, 305.987 85.484 C 301.916 80.580, 293.378 79.531, 289.455 83.455 M 189.325 87.003 C 187.330 87.807, 187.243 88.183, 188.276 91.549 C 189.637 95.984, 191.208 96.749, 194.508 94.587 C 197.454 92.657, 197.712 89.955, 195.171 87.655 C 193.134 85.812, 192.466 85.737, 189.325 87.003 M 163.250 91.220 C 161.296 92.163, 161 93.077, 161 98.170 L 161 104.034 155.829 101.413 C 150.786 98.858, 150.570 98.834, 147.130 100.475 L 143.603 102.157 151.421 106.329 L 159.239 110.500 158.583 119.250 C 158.223 124.063, 158.148 128, 158.417 128 C 158.686 128, 160.052 127.478, 161.453 126.839 C 163.759 125.789, 164 125.127, 164 119.839 C 164 116.488, 164.440 114, 165.033 114 C 165.602 114, 168.208 115.085, 170.825 116.411 C 175.350 118.704, 175.718 118.742, 178.292 117.180 C 179.781 116.276, 181 115.290, 181 114.988 C 181 114.686, 177.586 112.749, 173.413 110.684 L 165.826 106.930 166.531 98.465 C 166.921 93.794, 166.847 90.030, 166.368 90.068 C 165.891 90.105, 164.488 90.624, 163.250 91.220 M 313.231 102.510 C 309.804 109.391, 307 115.394, 307 115.850 C 307 116.306, 308.108 117.184, 309.463 117.801 C 311.880 118.903, 312.043 118.680, 318.332 105.712 C 323.994 94.037, 324.558 92.355, 323.178 91.250 C 322.320 90.563, 321.133 90, 320.540 90 C 319.948 90, 316.659 95.630, 313.231 102.510 M 330 111.125 C 325.875 117.205, 322.340 122.617, 322.146 123.153 C 321.827 124.029, 324.766 126.922, 326 126.946 C 326.275 126.952, 327.850 124.942, 329.500 122.480 C 331.150 120.018, 332.770 118.003, 333.100 118.002 C 333.430 118.001, 335.549 119.340, 337.809 120.977 L 341.919 123.954 343.490 121.727 C 345.213 119.286, 345.480 119.684, 338.637 114.500 C 336.012 112.511, 336.008 112.486, 337.886 110.074 L 339.775 107.647 345.015 111.010 C 350.044 114.237, 350.310 114.296, 351.627 112.495 C 352.382 111.462, 353 110.320, 353 109.956 C 353 109.165, 339.359 99.984, 338.262 100.036 C 337.843 100.056, 334.125 105.046, 330 111.125 M 125.755 116.569 L 118.018 123.250 123.259 129.314 C 126.142 132.649, 130.579 137.645, 133.120 140.416 L 137.740 145.454 142.466 141.477 C 145.066 139.290, 148.612 136.286, 150.346 134.802 L 153.500 132.104 151.418 129.998 L 149.336 127.892 144.271 132.446 C 141.485 134.951, 138.818 137, 138.344 137 C 137.869 137, 136.884 136.044, 136.154 134.876 C 134.947 132.942, 135.209 132.362, 139.076 128.423 C 142.676 124.754, 143.128 123.859, 142.039 122.547 C 140.143 120.262, 138.987 120.607, 134.782 124.712 L 130.980 128.425 128.740 126.132 L 126.500 123.840 131.778 119.065 C 136.985 114.355, 137.032 114.261, 135.274 112.090 L 133.491 109.889 125.755 116.569 M 361.608 118.063 C 361.348 118.853, 359.890 123.550, 358.369 128.500 C 356.335 135.118, 354.673 138.495, 352.089 141.260 L 348.575 145.020 350.774 147.219 L 352.974 149.418 356.362 146.133 C 358.979 143.597, 362.116 142.160, 370.126 139.827 C 375.832 138.165, 380.685 136.627, 380.911 136.409 C 381.711 135.635, 377.664 132, 376.002 132 C 375.073 132, 371.697 132.900, 368.500 134 C 365.303 135.100, 362.560 136, 362.404 136 C 362.248 136, 363.294 132.823, 364.728 128.940 L 367.334 121.880 364.707 119.253 C 362.703 117.248, 361.969 116.966, 361.608 118.063 M 228.929 126.960 C 213.556 128.926, 191.844 136.300, 179.048 143.902 C 154.340 158.581, 133.073 183.245, 123.044 208.855 C 107.825 247.713, 112.641 294.223, 135.424 328.418 C 154.753 357.430, 182.737 376.908, 216.375 384.764 C 226.116 387.039, 229.678 387.363, 245 387.363 C 260.313 387.363, 263.887 387.039, 273.600 384.770 C 324.214 372.947, 362.468 334.026, 373.625 283 C 376.451 270.079, 376.202 244.068, 373.119 230 C 364.437 190.388, 338.816 157.461, 302.500 139.246 C 295.180 135.575, 280.122 130.578, 270 128.463 C 261.129 126.608, 238.229 125.771, 228.929 126.960 M 316.147 159.888 C 315.108 160.547, 315.050 161.224, 315.897 162.807 C 316.504 163.941, 317 165.083, 317 165.346 C 317 166.151, 294.109 178, 292.552 178 C 291.749 178, 289.920 176.829, 288.489 175.398 C 286.777 173.686, 285.199 172.976, 283.876 173.322 C 279.939 174.352, 243.003 195.522, 243.001 196.750 C 243.001 197.438, 243.459 198, 244.020 198 C 244.581 198, 253.421 193.275, 263.665 187.500 C 273.908 181.725, 283.054 177, 283.990 177 C 284.925 177, 286.505 177.900, 287.500 179 C 290.418 182.225, 294.294 181.382, 306.660 174.830 L 318.307 168.660 320.064 170.830 C 321.030 172.024, 322.253 173, 322.781 173 C 324.077 173, 332.012 160.828, 331.381 159.808 C 330.715 158.730, 317.867 158.798, 316.147 159.888 M 325.475 173.205 C 325.200 173.921, 325.093 191.605, 325.238 212.503 L 325.500 250.500 332.262 250.796 L 339.023 251.092 338.762 211.796 L 338.500 172.500 332.237 172.202 C 327.794 171.990, 325.829 172.282, 325.475 173.205 M 328 212 L 328 248 332 248 L 336 248 336 212 L 336 176 332 176 L 328 176 328 212 M 307 216.500 L 307 251.091 313.750 250.796 L 320.500 250.500 320.500 216.500 L 320.500 182.500 313.750 182.204 L 307 181.909 307 216.500 M 153.235 193.264 L 143.984 202.553 144.242 263.027 L 144.500 323.500 188.500 323.772 C 231.765 324.039, 232.528 324.010, 234.178 322 C 235.174 320.787, 236.112 320.372, 236.487 320.979 C 238.131 323.638, 245 320.903, 245 317.588 C 245 316.890, 242.754 312.582, 240.008 308.013 L 235.016 299.708 234.758 242.104 L 234.500 184.500 198.492 184.238 L 162.485 183.976 153.235 193.264 M 310 216.440 L 310 248 314.014 248 L 318.028 248 317.764 216.750 L 317.500 185.500 313.750 185.190 L 310 184.879 310 216.440 M 164.392 197 L 165.072 206 156.036 206 L 147 206 147 263 L 147 320 189.500 320 L 232 320 232 317.240 C 232 315.558, 229.185 309.940, 224.790 302.849 L 217.580 291.218 209.954 291.741 C 201.570 292.315, 197.193 291.299, 191.543 287.465 C 188.233 285.218, 186.954 285.033, 172.992 284.776 C 153.831 284.423, 152.715 282.609, 171.421 282.222 L 184.847 281.945 182.674 277.021 L 180.500 272.098 169.246 271.799 C 154.509 271.407, 154.333 269.594, 168.996 269.217 L 180 268.934 180 263.967 L 180 259 169.167 259 C 163.208 259, 158.037 258.704, 157.675 258.342 C 157.313 257.980, 157.519 257.080, 158.131 256.342 C 158.943 255.363, 162.324 255, 170.622 255 C 176.880 255, 182 254.613, 182 254.140 C 182 253.666, 183.111 251.641, 184.470 249.640 L 186.940 246 173.092 246 C 162.728 246, 158.965 245.662, 158.131 244.658 C 157.519 243.920, 157.313 243.020, 157.675 242.658 C 158.037 242.296, 165.626 242, 174.540 242 C 189.138 242, 191.230 241.780, 195.623 239.784 C 202.192 236.800, 211.731 236.764, 218.186 239.699 C 220.763 240.872, 224.925 243.974, 227.436 246.594 L 232 251.358 232 219.679 L 232 188 197.857 188 L 163.713 188 164.392 197 M 154.557 195.932 C 151.289 199.241, 148.874 202.207, 149.191 202.525 C 149.509 202.842, 152.408 202.966, 155.634 202.801 L 161.500 202.500 161 196.208 L 160.500 189.917 154.557 195.932 M 270.452 195.265 C 270.185 195.961, 270.086 208.673, 270.233 223.515 L 270.500 250.500 277.250 250.796 L 284 251.091 284 222.546 L 284 194 277.469 194 C 273.125 194, 270.775 194.424, 270.452 195.265 M 274 222.500 L 274 248 277.500 248 L 281 248 281 222.500 L 281 197 277.500 197 L 274 197 274 222.500 M 195.462 200.061 C 193.955 202.500, 197.192 203.045, 211.578 202.778 C 224.052 202.546, 226.500 202.254, 226.500 201 C 226.500 199.745, 224.025 199.455, 211.325 199.224 C 200.985 199.037, 195.931 199.303, 195.462 200.061 M 252 230 L 252 251.091 258.750 250.796 L 265.500 250.500 265.500 230 L 265.500 209.500 258.750 209.204 L 252 208.909 252 230 M 255 230 L 255 248 259 248 L 263 248 263 230 L 263 212 259 212 L 255 212 255 230 M 157.504 216.993 C 157.157 217.555, 157.468 218.243, 158.196 218.522 C 160.763 219.507, 221.994 218.530, 222.251 217.500 C 222.598 216.105, 158.364 215.603, 157.504 216.993 M 289 234.500 L 289 251 295.500 251 L 302 251 302 234.500 L 302 218 295.500 218 L 289 218 289 234.500 M 292 234.500 L 292 248 295.500 248 L 299 248 299 234.500 L 299 221 295.500 221 L 292 221 292 234.500 M 157.504 229.993 C 157.157 230.555, 157.468 231.243, 158.196 231.522 C 160.763 232.507, 221.994 231.530, 222.251 230.500 C 222.598 229.105, 158.364 228.603, 157.504 229.993 M 23.667 239.667 C 23.300 240.033, 23 245.433, 23 251.667 L 23 263 25.500 263 C 27.672 263, 28 262.558, 28 259.631 C 28 256.533, 28.292 256.214, 31.624 255.674 C 33.617 255.350, 36.092 254.322, 37.124 253.388 C 39.318 251.402, 39.659 245.284, 37.723 242.636 C 35.888 240.126, 25.419 237.915, 23.667 239.667 M 51.378 240.389 C 46.890 242.411, 45 245.652, 45 251.323 C 45 255.536, 45.463 256.663, 48.400 259.600 C 51.233 262.433, 52.526 262.997, 56.150 262.985 C 61.651 262.965, 63.420 261.897, 62.540 259.126 C 61.979 257.359, 61.530 257.181, 59.874 258.067 C 57.114 259.545, 52.213 258.266, 50.845 255.711 C 49.205 252.645, 49.588 248.113, 51.683 245.797 C 53.143 244.184, 54.302 243.907, 57.653 244.366 C 60.930 244.815, 61.943 244.590, 62.438 243.301 C 62.783 242.401, 62.674 241.274, 62.196 240.796 C 60.596 239.196, 54.533 238.968, 51.378 240.389 M 198.147 242.145 C 193.481 243.488, 185.728 251.545, 184.222 256.616 C 178.220 276.827, 195.078 293.851, 215.142 287.839 C 224.328 285.087, 231.200 275.392, 231.200 265.185 C 231.200 251.255, 220.889 240.877, 207.261 241.090 C 204.092 241.140, 199.991 241.615, 198.147 242.145 M 400.223 242.557 C 397.661 244.351, 397.140 250.041, 399.367 251.890 C 401.214 253.422, 403.112 251.146, 402.367 248.294 C 401.966 246.762, 402.381 246.014, 403.900 245.532 C 409.558 243.736, 409.350 249.265, 403.488 256.461 L 398.977 262 406.488 262 C 413.333 262, 414 261.822, 414 260 C 414 258.533, 413.333 258, 411.500 258 C 408.487 258, 408.476 257.908, 410.996 253.774 C 414.976 247.247, 412.614 241, 406.166 241 C 404.119 241, 401.445 241.701, 400.223 242.557 M 422.780 242.064 C 420.107 243.621, 418.580 250.656, 419.934 255.174 C 422.373 263.315, 431.954 264.605, 435.837 257.316 C 438.362 252.574, 436.322 243.105, 432.455 241.621 C 430.022 240.687, 424.725 240.930, 422.780 242.064 M 445.762 242.073 C 442.712 243.851, 441.694 246.846, 443.038 250.091 C 444.873 254.522, 447.338 253.368, 447.448 248.025 C 447.489 246.012, 448.007 245.500, 450 245.500 C 451.951 245.500, 452.567 246.073, 452.803 248.111 C 453.033 250.089, 451.856 252.090, 447.953 256.361 L 442.799 262 450.400 262 C 457.333 262, 458 261.825, 458 260 C 458 258.667, 457.333 258, 456 258 C 454.900 258, 454 257.773, 454 257.496 C 454 257.219, 454.900 255.314, 456 253.261 C 457.100 251.209, 458 248.510, 458 247.265 C 458 242.302, 450.691 239.201, 445.762 242.073 M 466 246.760 L 466 252.519 469.250 252.510 C 472.053 252.501, 472.500 252.844, 472.500 255 C 472.500 257.211, 472.121 257.470, 469.222 257.242 C 466.961 257.065, 465.751 257.484, 465.326 258.593 C 463.931 262.227, 472.627 263.373, 476 260 C 479.865 256.135, 477.454 248, 472.443 248 C 470.938 248, 470 247.424, 470 246.500 C 470 245.452, 471.056 245, 473.500 245 C 476.333 245, 477 244.619, 477 243 C 477 241.242, 476.333 241, 471.500 241 L 466 241 466 246.760 M 201.222 244.438 C 185.655 249.415, 180.792 268.096, 192.022 279.783 C 200.877 288.999, 216.713 287.695, 224.373 277.119 C 227.241 273.161, 227.500 272.155, 227.500 264.988 C 227.500 257.914, 227.214 256.766, 224.491 252.891 C 219.302 245.508, 209.272 241.864, 201.222 244.438 M 28 247.566 C 28 250.837, 28.220 251.107, 30.649 250.816 C 36.195 250.154, 35.950 244, 30.378 244 C 28.319 244, 28 244.478, 28 247.566 M 425.035 246.934 C 422.331 251.987, 425.905 259.191, 430.023 256.988 C 431.518 256.188, 432 254.890, 432 251.665 C 432 249.319, 431.460 246.860, 430.800 246.200 C 428.998 244.398, 426.202 244.754, 425.035 246.934 M 199.089 248.798 C 190.733 252.968, 187.054 262.616, 190.440 271.483 C 194.747 282.760, 209.082 286.502, 218.437 278.792 C 231.636 267.912, 223.906 246.856, 206.782 247.048 C 204.427 247.074, 200.965 247.862, 199.089 248.798 M 72.250 249.010 C 70.603 249.687, 70 250.762, 70 253.020 C 70 255.548, 70.541 256.293, 73 257.150 C 76.913 258.514, 76.942 260.438, 73.039 259.658 C 69.825 259.015, 67.856 260.661, 70.122 262.096 C 70.880 262.577, 72.937 262.976, 74.693 262.985 C 81.070 263.015, 82.339 256.220, 76.379 253.954 C 73.551 252.879, 73.989 250.923, 76.888 251.681 C 78.542 252.114, 80.797 250.464, 79.848 249.515 C 78.841 248.507, 74.217 248.200, 72.250 249.010 M 318.667 253.667 C 318.300 254.033, 318 255.460, 318 256.838 C 318 258.215, 317.389 260.053, 316.642 260.921 C 313.355 264.742, 313 269.237, 313 307.090 C 313 331.206, 313.362 345.106, 314 345.500 C 314.550 345.840, 315 347.351, 315 348.859 C 315 352.180, 316.639 354, 319.629 354 C 322.489 354, 325 351.482, 325 348.614 C 325 347.038, 326.033 345.878, 328.474 344.714 C 330.458 343.768, 332.191 342.080, 332.515 340.779 C 333.602 336.411, 332.585 316.691, 331.250 316.248 C 330.297 315.932, 330 318.671, 330 327.794 C 330 337.206, 329.680 340.020, 328.500 341 C 327.171 342.103, 327 338.072, 327 305.705 C 327 271.914, 326.856 268.829, 325.083 264.693 C 324.028 262.233, 322.678 259.919, 322.083 259.551 C 321.487 259.183, 321 257.559, 321 255.941 C 321 253.126, 320.092 252.241, 318.667 253.667 M 215.750 261.080 C 214.787 261.641, 214 263.224, 214 264.597 C 214 265.978, 212.881 268.132, 211.500 269.412 C 208.182 272.488, 208.162 276.661, 211.459 278.163 C 218.008 281.147, 226.639 266.782, 221.429 261.571 C 219.621 259.764, 218.219 259.642, 215.750 261.080 M 251.923 263.923 L 249 266.846 249 306.489 C 249 347.003, 249.159 348.835, 252.913 351.718 C 254.050 352.591, 260.926 352.945, 277.161 352.968 L 299.822 353 302.443 349.885 L 305.064 346.770 304.782 306.298 L 304.500 265.825 301.694 263.413 C 298.912 261.020, 298.702 261, 276.867 261 L 254.846 261 251.923 263.923 M 317.630 265.250 C 316.683 268.785, 316.819 269, 320 269 C 323.385 269, 323.352 269.056, 322.025 265.565 C 320.821 262.399, 318.440 262.228, 317.630 265.250 M 254 266 C 252.068 267.932, 252 269.333, 252 307.345 C 252 344.192, 252.116 346.795, 253.829 348.345 C 255.412 349.778, 258.563 350, 277.272 350 C 298.474 350, 298.916 349.958, 300.443 347.777 C 301.786 345.860, 302 340.316, 302 307.412 C 302 270.339, 301.942 269.196, 299.927 266.635 L 297.855 264 276.927 264 C 257.333 264, 255.873 264.127, 254 266 M 257 278 L 257 285 277 285 L 297 285 297 278 L 297 271 277 271 L 257 271 257 278 M 260 278 L 260 282 277 282 L 294 282 294 278 L 294 274 277 274 L 260 274 260 278 M 316 290.500 L 316 303 320 303 L 324 303 324 290.500 L 324 278 320 278 L 316 278 316 290.500 M 228.201 282.022 L 225.902 284.934 228.201 288.959 C 229.466 291.173, 230.838 292.988, 231.250 292.992 C 231.662 292.997, 232 289.850, 232 286 C 232 282.150, 231.662 279.025, 231.250 279.055 C 230.838 279.086, 229.466 280.421, 228.201 282.022 M 46.614 286.250 C 64.682 390.335, 157.780 464.201, 260.778 456.170 C 295.142 453.490, 324.577 444.068, 352.300 426.874 C 394.280 400.837, 426.502 359.485, 440.455 313.740 C 443.374 304.171, 446.946 288.568, 446.978 285.250 L 447 283 413.250 283.012 L 379.500 283.025 377.331 291.985 C 367.022 334.566, 331.219 372.207, 287.500 386.428 C 271.745 391.552, 264.928 392.505, 244.500 392.437 C 224.411 392.370, 220.306 391.765, 203.500 386.392 C 159.064 372.184, 122.785 333.061, 112.957 288.750 L 111.682 283 78.866 283 L 46.050 283 46.614 286.250 M 220.630 288.790 C 220.361 289.225, 221.453 291.688, 223.056 294.265 C 225.056 297.477, 226.447 298.766, 227.486 298.367 C 229.578 297.564, 229.403 296.566, 226.367 291.979 C 223.879 288.218, 221.723 287.021, 220.630 288.790 M 259.219 292.559 C 254.966 295.538, 257.435 303, 262.674 303 C 263.783 303, 265.435 302.177, 266.345 301.171 C 270.867 296.174, 264.700 288.720, 259.219 292.559 M 273.635 293.073 C 270.490 295.546, 270.272 298.272, 273 301 C 276.385 304.385, 281.044 303.039, 282.461 298.267 C 282.945 296.638, 282.443 295.352, 280.608 293.517 C 277.557 290.467, 276.994 290.431, 273.635 293.073 M 288.223 292.557 C 283.353 295.967, 287.156 304.400, 292.677 302.432 C 294.116 301.920, 295.743 300.782, 296.294 299.905 C 297.814 297.481, 296.358 293.484, 293.477 292.171 C 290.334 290.739, 290.873 290.700, 288.223 292.557 M 260.364 296.493 C 260.018 297.396, 260.214 298.614, 260.800 299.200 C 262.324 300.724, 265.210 299.331, 264.812 297.265 C 264.369 294.963, 261.165 294.407, 260.364 296.493 M 274.441 296.096 C 274.068 296.699, 274.448 297.877, 275.286 298.714 C 277.108 300.537, 279 299.634, 279 296.941 C 279 294.817, 275.618 294.190, 274.441 296.096 M 289.364 296.493 C 289.018 297.396, 289.214 298.614, 289.800 299.200 C 291.324 300.724, 294.210 299.331, 293.812 297.265 C 293.369 294.963, 290.165 294.407, 289.364 296.493 M 258.655 307.829 C 255.358 311.472, 257.625 317, 262.416 317 C 267.225 317, 269.697 310.846, 266.171 307.655 C 263.772 305.484, 260.713 305.555, 258.655 307.829 M 273 308 C 270.593 310.407, 270.499 311.840, 272.557 314.777 C 274.376 317.375, 279.109 317.778, 281.003 315.497 C 282.832 313.293, 282.523 308.856, 280.434 307.328 C 277.864 305.449, 275.321 305.679, 273 308 M 287.655 307.829 C 284.358 311.472, 286.625 317, 291.416 317 C 296.225 317, 298.697 310.846, 295.171 307.655 C 292.772 305.484, 289.713 305.555, 287.655 307.829 M 316 321 L 316 336 320 336 L 324 336 324 321 L 324 306 320 306 L 316 306 316 321 M 260.364 310.493 C 260.018 311.396, 260.214 312.614, 260.800 313.200 C 262.324 314.724, 265.210 313.331, 264.812 311.265 C 264.369 308.963, 261.165 308.407, 260.364 310.493 M 275.110 310.367 C 274.246 311.409, 274.346 312.042, 275.530 313.025 C 277.441 314.611, 279.574 312.939, 278.664 310.567 C 277.923 308.637, 276.608 308.563, 275.110 310.367 M 289.364 310.493 C 289.018 311.396, 289.214 312.614, 289.800 313.200 C 291.324 314.724, 294.210 313.331, 293.812 311.265 C 293.369 308.963, 290.165 308.407, 289.364 310.493 M 259.223 321.557 C 256.035 323.789, 256.236 328.454, 259.615 330.667 C 261.957 332.202, 262.506 332.227, 264.865 330.909 C 268.489 328.885, 269.016 323.825, 265.834 321.596 C 262.994 319.607, 262.014 319.601, 259.223 321.557 M 273 322 C 269.615 325.385, 270.961 330.044, 275.733 331.461 C 277.362 331.945, 278.648 331.443, 280.483 329.608 C 283.533 326.557, 283.569 325.994, 280.927 322.635 C 278.454 319.490, 275.728 319.272, 273 322 M 288.223 321.557 C 284.033 324.491, 286.550 332, 291.723 332 C 293.689 332, 297 328.236, 297 326 C 297 323.764, 293.689 320, 291.723 320 C 291.020 320, 289.445 320.701, 288.223 321.557 M 261.250 323.731 C 260.563 323.970, 260 325.060, 260 326.153 C 260 327.638, 260.565 328.059, 262.240 327.820 C 263.472 327.644, 264.619 326.769, 264.789 325.876 C 265.121 324.132, 263.287 323.020, 261.250 323.731 M 275.064 324.423 C 273.512 326.293, 274.497 328, 277.129 328 C 278.624 328, 279.057 327.443, 278.820 325.828 C 278.420 323.115, 276.688 322.466, 275.064 324.423 M 290.250 323.731 C 289.563 323.970, 289 325.060, 289 326.153 C 289 327.638, 289.565 328.059, 291.240 327.820 C 292.472 327.644, 293.619 326.769, 293.789 325.876 C 294.121 324.132, 292.287 323.020, 290.250 323.731 M 259.219 335.559 C 254.966 338.538, 257.435 346, 262.674 346 C 263.783 346, 265.435 345.177, 266.345 344.171 C 270.867 339.174, 264.700 331.720, 259.219 335.559 M 273.635 336.073 C 270.490 338.546, 270.272 341.272, 273 344 C 276.385 347.385, 281.044 346.039, 282.461 341.267 C 282.945 339.638, 282.443 338.352, 280.608 336.517 C 277.557 333.467, 276.994 333.431, 273.635 336.073 M 288.223 335.557 C 283.353 338.967, 287.156 347.400, 292.677 345.432 C 294.116 344.920, 295.743 343.782, 296.294 342.905 C 297.814 340.481, 296.358 336.484, 293.477 335.171 C 290.334 333.739, 290.873 333.700, 288.223 335.557 M 260.351 339.527 C 259.618 341.437, 261.623 343.082, 263.708 342.282 C 265.596 341.557, 264.894 338.603, 262.735 338.188 C 261.778 338.003, 260.705 338.606, 260.351 339.527 M 274.441 339.096 C 274.068 339.699, 274.448 340.877, 275.286 341.714 C 277.108 343.537, 279 342.634, 279 339.941 C 279 337.817, 275.618 337.190, 274.441 339.096 M 289.351 339.527 C 288.618 341.437, 290.623 343.082, 292.708 342.282 C 294.596 341.557, 293.894 338.603, 291.735 338.188 C 290.778 338.003, 289.705 338.606, 289.351 339.527 M 318.180 348.250 C 318.356 349.488, 319.175 350.500, 320 350.500 C 320.825 350.500, 321.644 349.488, 321.820 348.250 C 322.065 346.518, 321.646 346, 320 346 C 318.354 346, 317.935 346.518, 318.180 348.250 M 147.081 373.402 C 146.152 374.522, 146.529 375.240, 148.949 376.964 L 151.980 379.122 144.399 389.134 C 137.298 398.510, 136.934 399.232, 138.658 400.505 C 140.864 402.134, 140.248 402.695, 148.814 391.253 L 155.737 382.005 158.276 384.003 C 159.673 385.101, 161.259 386, 161.801 386 C 162.687 386, 164.437 382.943, 163.774 382.553 C 163.623 382.465, 160.472 380.054, 156.771 377.196 C 149.467 371.555, 148.823 371.303, 147.081 373.402 M 331.238 377.695 C 326.422 381.388, 324.271 383.641, 324.852 384.382 C 325.335 384.997, 329.058 390, 333.126 395.500 C 337.193 401, 340.791 405.725, 341.119 406 C 342.055 406.783, 357 395.729, 357 394.254 C 357 391.354, 353.855 392.044, 348.442 396.132 L 342.752 400.427 340.359 397.464 L 337.966 394.500 340.251 392.500 C 341.508 391.400, 343.878 389.515, 345.518 388.311 C 348.297 386.271, 348.387 386.007, 346.846 384.442 C 345.299 382.872, 344.877 383.002, 340.356 386.454 L 335.522 390.145 333.261 387.517 C 332.017 386.071, 331.010 384.576, 331.022 384.194 C 331.033 383.812, 333.508 381.734, 336.522 379.575 C 339.535 377.416, 342 375.369, 342 375.025 C 342 374.221, 339.770 371.981, 339.050 372.063 C 338.748 372.097, 335.232 374.632, 331.238 377.695 M 163.139 399.696 C 157.204 411.611, 156.926 412.473, 158.622 413.713 C 160.230 414.888, 160.680 414.619, 162.709 411.267 C 163.963 409.195, 165.124 407.103, 165.289 406.618 C 165.453 406.133, 167.008 406.470, 168.744 407.368 C 173.177 409.660, 176.367 409.403, 179.850 406.473 C 186.102 401.212, 184.589 394.271, 176.193 389.702 C 173.463 388.216, 170.832 387, 170.346 387 C 169.860 387, 166.617 392.713, 163.139 399.696 M 310.328 390.938 C 305.432 393.161, 303.021 396.427, 302.298 401.815 C 301.581 407.158, 304.834 414.319, 309.182 416.970 C 314.891 420.450, 323.985 419.098, 328.433 414.107 C 330.227 412.094, 330.248 411.819, 328.722 410.294 C 327.197 408.768, 326.893 408.834, 324.514 411.213 C 317.691 418.037, 307 413.007, 307 402.973 C 307 398.741, 311.715 394, 315.923 394 C 318.538 394, 319 393.625, 319 391.500 C 319 388.384, 316.333 388.212, 310.328 390.938 M 169.908 397.181 C 167.864 401.187, 167.850 401.417, 169.578 402.681 C 173.368 405.452, 179 403.252, 179 399.001 C 179 397.238, 174.682 393, 172.885 393 C 172.421 393, 171.081 394.881, 169.908 397.181 M 289.352 399.765 C 288.721 400.169, 287.688 404.758, 287.056 409.963 C 286.424 415.168, 285.780 419.553, 285.625 419.708 C 285.470 419.863, 282.767 416.392, 279.619 411.995 C 273.982 404.122, 273.098 403.471, 269.879 404.820 C 268.575 405.367, 270.235 408.041, 278.366 418.495 C 284.270 426.085, 288.598 430.849, 288.772 429.948 C 288.935 429.100, 290.097 421.789, 291.353 413.703 C 293.380 400.655, 293.461 399.002, 292.069 399.015 C 291.206 399.024, 289.984 399.361, 289.352 399.765 M 195.450 401.354 C 186.527 405.394, 183.345 417.084, 189.157 424.473 C 197.841 435.512, 215.992 429.037, 215.998 414.898 C 216.003 405.284, 204.100 397.439, 195.450 401.354 M 196.110 406.396 C 190.433 409.542, 189.370 417.144, 193.898 422.211 C 200.137 429.195, 211 424.556, 211 414.907 C 211 407.161, 202.990 402.582, 196.110 406.396 M 258.752 416.512 C 259.367 428.570, 258.319 431, 252.500 431 C 247.313 431, 246.121 428.693, 245.367 417.191 C 244.718 407.284, 244.632 407, 242.298 407 C 239.899 407, 239.896 407.012, 240.496 415.750 C 241.429 429.345, 241.771 430.630, 245.239 433.547 C 247.959 435.837, 249.091 436.150, 253.215 435.753 C 262.318 434.879, 264.444 430.831, 263.456 416.250 C 262.792 406.460, 262.659 406, 260.488 406 C 258.235 406, 258.220 406.089, 258.752 416.512" stroke="none" fill="#100c0b" fill-rule="evenodd"/><path d="M 0 109.500 L 0 219 20.859 219 L 41.719 219 44.488 207.250 C 60.275 140.259, 107.657 85.735, 171.995 60.522 C 209.053 45.999, 256.436 42.892, 295.500 52.424 C 341.344 63.609, 381.616 89.682, 410.688 127 C 428.775 150.217, 444.191 183.244, 449.537 210.231 L 451.266 218.962 472.883 219.231 C 494.447 219.499, 494.501 219.506, 494.820 221.750 L 495.139 224 436.002 224 C 380.152 224, 376.894 224.097, 377.381 225.750 C 379.509 232.976, 380.432 242.856, 380.464 258.750 L 380.500 277 437.059 277 C 483.801 277, 493.948 277.242, 495.521 278.392 C 497.138 279.574, 497.224 280.025, 496.090 281.392 C 494.941 282.777, 491.818 283, 473.613 283 L 452.471 283 450.187 294.250 C 434.373 372.128, 375.279 433.946, 297.466 454.009 C 266.782 461.920, 228.208 462.104, 198 454.483 C 135.929 438.823, 86.670 398.867, 59.324 342 C 51.794 326.340, 42.081 294.505, 42.016 285.271 C 42 283.048, 41.941 283.041, 21.763 282.771 C 2.868 282.518, 1.502 282.375, 1.165 280.620 C 0.966 279.586, 1.410 278.355, 2.152 277.885 C 2.893 277.415, 27.598 277.024, 57.052 277.015 L 110.604 277 109.853 270.250 C 108.318 256.447, 109.733 233.071, 112.547 225.739 C 113.176 224.100, 109.971 224, 56.607 224 L 0 224 0 362.002 L 0 500.004 250.250 499.752 L 500.500 499.500 500.744 249.750 L 500.988 0 250.494 0 L 0 0 0 109.500 M 0.483 110 C 0.483 170.225, 0.603 194.862, 0.750 164.750 C 0.897 134.637, 0.897 85.362, 0.750 55.250 C 0.603 25.137, 0.483 49.775, 0.483 110 M 225.589 51.100 C 151.522 58.908, 86.570 108.229, 58.475 178 C 54.376 188.181, 47 213.606, 47 217.556 C 47 218.826, 51.583 218.991, 80.604 218.763 L 114.208 218.500 116.952 211 C 133.360 166.157, 171.334 133.529, 219 123.321 C 225.697 121.886, 231.635 121.521, 247 121.598 C 265.390 121.690, 267.165 121.870, 278.190 124.764 C 299.201 130.279, 318.508 140.299, 334.985 154.241 C 352.070 168.697, 367.830 192.143, 374.645 213.243 L 376.500 218.986 411.250 218.993 L 446 219 445.991 216.750 C 445.976 212.992, 441.180 195.107, 437.343 184.500 C 416.096 125.761, 367.777 78.719, 309.524 60.059 C 282.408 51.372, 252.891 48.222, 225.589 51.100 M 247.095 84.750 C 246.450 91.763, 245.706 98.513, 245.442 99.750 C 245.031 101.678, 245.378 102, 247.874 102 C 251.270 102, 251.972 100.690, 252.070 94.168 C 252.210 84.895, 252.730 84.962, 262.406 95.483 C 267.266 100.767, 271.378 104.955, 271.544 104.789 C 271.710 104.623, 272.331 99.765, 272.924 93.994 C 273.517 88.222, 274.246 81.641, 274.545 79.370 C 275.064 75.413, 274.963 75.222, 272.153 74.809 C 269.353 74.398, 269.192 74.580, 268.610 78.829 C 268.274 81.277, 268 85.016, 268 87.140 C 268 89.263, 267.609 91, 267.130 91 C 266.652 91, 262.489 86.731, 257.880 81.513 C 253.271 76.295, 249.223 72.020, 248.884 72.013 C 248.545 72.006, 247.740 77.737, 247.095 84.750 M 220.250 74.229 C 213.280 75.152, 213 75.294, 213 77.886 C 213 80.543, 215.949 104.282, 216.326 104.659 C 216.687 105.020, 235.971 102.363, 236.447 101.886 C 236.708 101.626, 236.652 100.387, 236.325 99.134 C 235.751 96.939, 235.457 96.880, 228.364 97.545 L 221 98.235 221 95.167 C 221 92.157, 221.113 92.087, 227.053 91.414 C 232.847 90.759, 233.094 90.617, 232.803 88.115 C 232.511 85.594, 232.265 85.500, 226 85.500 C 219.692 85.500, 219.491 85.421, 219.190 82.816 C 218.886 80.184, 219.015 80.120, 225.940 79.437 C 232.886 78.753, 233 78.695, 233 75.871 C 233 72.598, 232.776 72.569, 220.250 74.229 M 184.575 82.579 C 182.416 83.369, 180.457 84.209, 180.221 84.445 C 179.697 84.970, 187.939 110.160, 189.024 111.349 C 189.450 111.816, 190.782 111.887, 191.984 111.505 C 194.205 110.800, 194.206 110.775, 192.425 104.379 C 191.937 102.626, 192.603 101.887, 196.263 100.115 C 200.650 97.991, 203 94.777, 203 90.903 C 203 88.053, 200.318 83.241, 198.055 82.030 C 195.401 80.609, 189.271 80.859, 184.575 82.579 M 289.455 83.455 C 285.538 87.371, 286.160 91.187, 291.674 97.083 C 295.946 101.650, 296.212 102.217, 294.759 103.670 C 292.850 105.579, 289.375 104.930, 286.333 102.096 C 284.235 100.141, 284.183 100.141, 282.465 102.038 C 281.007 103.650, 280.938 104.220, 282.039 105.547 C 285.807 110.087, 294.975 111.461, 299.116 108.107 C 300.890 106.671, 301.455 105.208, 301.455 102.050 C 301.455 98.438, 300.895 97.370, 297.227 93.984 C 292.553 89.668, 292.255 88.863, 294.610 86.909 C 295.975 85.776, 296.841 85.912, 300.302 87.808 C 303.896 89.777, 304.560 89.868, 305.856 88.572 C 307.093 87.335, 307.114 86.842, 305.987 85.484 C 301.916 80.580, 293.378 79.531, 289.455 83.455 M 189.325 87.003 C 187.330 87.807, 187.243 88.183, 188.276 91.549 C 189.637 95.984, 191.208 96.749, 194.508 94.587 C 197.454 92.657, 197.712 89.955, 195.171 87.655 C 193.134 85.812, 192.466 85.737, 189.325 87.003 M 163.250 91.220 C 161.296 92.163, 161 93.077, 161 98.170 L 161 104.034 155.829 101.413 C 150.786 98.858, 150.570 98.834, 147.130 100.475 L 143.603 102.157 151.421 106.329 L 159.239 110.500 158.583 119.250 C 158.223 124.063, 158.148 128, 158.417 128 C 158.686 128, 160.052 127.478, 161.453 126.839 C 163.759 125.789, 164 125.127, 164 119.839 C 164 116.488, 164.440 114, 165.033 114 C 165.602 114, 168.208 115.085, 170.825 116.411 C 175.350 118.704, 175.718 118.742, 178.292 117.180 C 179.781 116.276, 181 115.290, 181 114.988 C 181 114.686, 177.586 112.749, 173.413 110.684 L 165.826 106.930 166.531 98.465 C 166.921 93.794, 166.847 90.030, 166.368 90.068 C 165.891 90.105, 164.488 90.624, 163.250 91.220 M 313.231 102.510 C 309.804 109.391, 307 115.394, 307 115.850 C 307 116.306, 308.108 117.184, 309.463 117.801 C 311.880 118.903, 312.043 118.680, 318.332 105.712 C 323.994 94.037, 324.558 92.355, 323.178 91.250 C 322.320 90.563, 321.133 90, 320.540 90 C 319.948 90, 316.659 95.630, 313.231 102.510 M 330 111.125 C 325.875 117.205, 322.340 122.617, 322.146 123.153 C 321.827 124.029, 324.766 126.922, 326 126.946 C 326.275 126.952, 327.850 124.942, 329.500 122.480 C 331.150 120.018, 332.770 118.003, 333.100 118.002 C 333.430 118.001, 335.549 119.340, 337.809 120.977 L 341.919 123.954 343.490 121.727 C 345.213 119.286, 345.480 119.684, 338.637 114.500 C 336.012 112.511, 336.008 112.486, 337.886 110.074 L 339.775 107.647 345.015 111.010 C 350.044 114.237, 350.310 114.296, 351.627 112.495 C 352.382 111.462, 353 110.320, 353 109.956 C 353 109.165, 339.359 99.984, 338.262 100.036 C 337.843 100.056, 334.125 105.046, 330 111.125 M 125.755 116.569 L 118.018 123.250 123.259 129.314 C 126.142 132.649, 130.579 137.645, 133.120 140.416 L 137.740 145.454 142.466 141.477 C 145.066 139.290, 148.612 136.286, 150.346 134.802 L 153.500 132.104 151.418 129.998 L 149.336 127.892 144.271 132.446 C 141.485 134.951, 138.818 137, 138.344 137 C 137.869 137, 136.884 136.044, 136.154 134.876 C 134.947 132.942, 135.209 132.362, 139.076 128.423 C 142.676 124.754, 143.128 123.859, 142.039 122.547 C 140.143 120.262, 138.987 120.607, 134.782 124.712 L 130.980 128.425 128.740 126.132 L 126.500 123.840 131.778 119.065 C 136.985 114.355, 137.032 114.261, 135.274 112.090 L 133.491 109.889 125.755 116.569 M 361.608 118.063 C 361.348 118.853, 359.890 123.550, 358.369 128.500 C 356.335 135.118, 354.673 138.495, 352.089 141.260 L 348.575 145.020 350.774 147.219 L 352.974 149.418 356.362 146.133 C 358.979 143.597, 362.116 142.160, 370.126 139.827 C 375.832 138.165, 380.685 136.627, 380.911 136.409 C 381.711 135.635, 377.664 132, 376.002 132 C 375.073 132, 371.697 132.900, 368.500 134 C 365.303 135.100, 362.560 136, 362.404 136 C 362.248 136, 363.294 132.823, 364.728 128.940 L 367.334 121.880 364.707 119.253 C 362.703 117.248, 361.969 116.966, 361.608 118.063 M 228.929 126.960 C 213.556 128.926, 191.844 136.300, 179.048 143.902 C 154.340 158.581, 133.073 183.245, 123.044 208.855 C 107.825 247.713, 112.641 294.223, 135.424 328.418 C 154.753 357.430, 182.737 376.908, 216.375 384.764 C 226.116 387.039, 229.678 387.363, 245 387.363 C 260.313 387.363, 263.887 387.039, 273.600 384.770 C 324.214 372.947, 362.468 334.026, 373.625 283 C 376.451 270.079, 376.202 244.068, 373.119 230 C 364.437 190.388, 338.816 157.461, 302.500 139.246 C 295.180 135.575, 280.122 130.578, 270 128.463 C 261.129 126.608, 238.229 125.771, 228.929 126.960 M 316.147 159.888 C 315.108 160.547, 315.050 161.224, 315.897 162.807 C 316.504 163.941, 317 165.083, 317 165.346 C 317 166.151, 294.109 178, 292.552 178 C 291.749 178, 289.920 176.829, 288.489 175.398 C 286.777 173.686, 285.199 172.976, 283.876 173.322 C 279.939 174.352, 243.003 195.522, 243.001 196.750 C 243.001 197.438, 243.459 198, 244.020 198 C 244.581 198, 253.421 193.275, 263.665 187.500 C 273.908 181.725, 283.054 177, 283.990 177 C 284.925 177, 286.505 177.900, 287.500 179 C 290.418 182.225, 294.294 181.382, 306.660 174.830 L 318.307 168.660 320.064 170.830 C 321.030 172.024, 322.253 173, 322.781 173 C 324.077 173, 332.012 160.828, 331.381 159.808 C 330.715 158.730, 317.867 158.798, 316.147 159.888 M 325.475 173.205 C 325.200 173.921, 325.093 191.605, 325.238 212.503 L 325.500 250.500 332.262 250.796 L 339.023 251.092 338.762 211.796 L 338.500 172.500 332.237 172.202 C 327.794 171.990, 325.829 172.282, 325.475 173.205 M 328 212 L 328 248 332 248 L 336 248 336 212 L 336 176 332 176 L 328 176 328 212 M 307 216.500 L 307 251.091 313.750 250.796 L 320.500 250.500 320.500 216.500 L 320.500 182.500 313.750 182.204 L 307 181.909 307 216.500 M 153.235 193.264 L 143.984 202.553 144.242 263.027 L 144.500 323.500 188.500 323.772 C 231.765 324.039, 232.528 324.010, 234.178 322 C 235.174 320.787, 236.112 320.372, 236.487 320.979 C 238.131 323.638, 245 320.903, 245 317.588 C 245 316.890, 242.754 312.582, 240.008 308.013 L 235.016 299.708 234.758 242.104 L 234.500 184.500 198.492 184.238 L 162.485 183.976 153.235 193.264 M 310 216.440 L 310 248 314.014 248 L 318.028 248 317.764 216.750 L 317.500 185.500 313.750 185.190 L 310 184.879 310 216.440 M 164.392 197 L 165.072 206 156.036 206 L 147 206 147 263 L 147 320 189.500 320 L 232 320 232 317.240 C 232 315.558, 229.185 309.940, 224.790 302.849 L 217.580 291.218 209.954 291.741 C 201.570 292.315, 197.193 291.299, 191.543 287.465 C 188.233 285.218, 186.954 285.033, 172.992 284.776 C 153.831 284.423, 152.715 282.609, 171.421 282.222 L 184.847 281.945 182.674 277.021 L 180.500 272.098 169.246 271.799 C 154.509 271.407, 154.333 269.594, 168.996 269.217 L 180 268.934 180 263.967 L 180 259 169.167 259 C 163.208 259, 158.037 258.704, 157.675 258.342 C 157.313 257.980, 157.519 257.080, 158.131 256.342 C 158.943 255.363, 162.324 255, 170.622 255 C 176.880 255, 182 254.613, 182 254.140 C 182 253.666, 183.111 251.641, 184.470 249.640 L 186.940 246 173.092 246 C 162.728 246, 158.965 245.662, 158.131 244.658 C 157.519 243.920, 157.313 243.020, 157.675 242.658 C 158.037 242.296, 165.626 242, 174.540 242 C 189.138 242, 191.230 241.780, 195.623 239.784 C 202.192 236.800, 211.731 236.764, 218.186 239.699 C 220.763 240.872, 224.925 243.974, 227.436 246.594 L 232 251.358 232 219.679 L 232 188 197.857 188 L 163.713 188 164.392 197 M 154.557 195.932 C 151.289 199.241, 148.874 202.207, 149.191 202.525 C 149.509 202.842, 152.408 202.966, 155.634 202.801 L 161.500 202.500 161 196.208 L 160.500 189.917 154.557 195.932 M 270.452 195.265 C 270.185 195.961, 270.086 208.673, 270.233 223.515 L 270.500 250.500 277.250 250.796 L 284 251.091 284 222.546 L 284 194 277.469 194 C 273.125 194, 270.775 194.424, 270.452 195.265 M 274 222.500 L 274 248 277.500 248 L 281 248 281 222.500 L 281 197 277.500 197 L 274 197 274 222.500 M 195.462 200.061 C 193.955 202.500, 197.192 203.045, 211.578 202.778 C 224.052 202.546, 226.500 202.254, 226.500 201 C 226.500 199.745, 224.025 199.455, 211.325 199.224 C 200.985 199.037, 195.931 199.303, 195.462 200.061 M 252 230 L 252 251.091 258.750 250.796 L 265.500 250.500 265.500 230 L 265.500 209.500 258.750 209.204 L 252 208.909 252 230 M 255 230 L 255 248 259 248 L 263 248 263 230 L 263 212 259 212 L 255 212 255 230 M 157.504 216.993 C 157.157 217.555, 157.468 218.243, 158.196 218.522 C 160.763 219.507, 221.994 218.530, 222.251 217.500 C 222.598 216.105, 158.364 215.603, 157.504 216.993 M 289 234.500 L 289 251 295.500 251 L 302 251 302 234.500 L 302 218 295.500 218 L 289 218 289 234.500 M 292 234.500 L 292 248 295.500 248 L 299 248 299 234.500 L 299 221 295.500 221 L 292 221 292 234.500 M 0.486 362 C 0.486 438.175, 0.605 469.337, 0.750 431.250 C 0.895 393.162, 0.895 330.837, 0.750 292.750 C 0.605 254.662, 0.486 285.825, 0.486 362 M 157.504 229.993 C 157.157 230.555, 157.468 231.243, 158.196 231.522 C 160.763 232.507, 221.994 231.530, 222.251 230.500 C 222.598 229.105, 158.364 228.603, 157.504 229.993 M 23.667 239.667 C 23.300 240.033, 23 245.433, 23 251.667 L 23 263 25.500 263 C 27.672 263, 28 262.558, 28 259.631 C 28 256.533, 28.292 256.214, 31.624 255.674 C 33.617 255.350, 36.092 254.322, 37.124 253.388 C 39.318 251.402, 39.659 245.284, 37.723 242.636 C 35.888 240.126, 25.419 237.915, 23.667 239.667 M 51.378 240.389 C 46.890 242.411, 45 245.652, 45 251.323 C 45 255.536, 45.463 256.663, 48.400 259.600 C 51.233 262.433, 52.526 262.997, 56.150 262.985 C 61.651 262.965, 63.420 261.897, 62.540 259.126 C 61.979 257.359, 61.530 257.181, 59.874 258.067 C 57.114 259.545, 52.213 258.266, 50.845 255.711 C 49.205 252.645, 49.588 248.113, 51.683 245.797 C 53.143 244.184, 54.302 243.907, 57.653 244.366 C 60.930 244.815, 61.943 244.590, 62.438 243.301 C 62.783 242.401, 62.674 241.274, 62.196 240.796 C 60.596 239.196, 54.533 238.968, 51.378 240.389 M 198.147 242.145 C 193.481 243.488, 185.728 251.545, 184.222 256.616 C 178.220 276.827, 195.078 293.851, 215.142 287.839 C 224.328 285.087, 231.200 275.392, 231.200 265.185 C 231.200 251.255, 220.889 240.877, 207.261 241.090 C 204.092 241.140, 199.991 241.615, 198.147 242.145 M 400.223 242.557 C 397.661 244.351, 397.140 250.041, 399.367 251.890 C 401.214 253.422, 403.112 251.146, 402.367 248.294 C 401.966 246.762, 402.381 246.014, 403.900 245.532 C 409.558 243.736, 409.350 249.265, 403.488 256.461 L 398.977 262 406.488 262 C 413.333 262, 414 261.822, 414 260 C 414 258.533, 413.333 258, 411.500 258 C 408.487 258, 408.476 257.908, 410.996 253.774 C 414.976 247.247, 412.614 241, 406.166 241 C 404.119 241, 401.445 241.701, 400.223 242.557 M 422.780 242.064 C 420.107 243.621, 418.580 250.656, 419.934 255.174 C 422.373 263.315, 431.954 264.605, 435.837 257.316 C 438.362 252.574, 436.322 243.105, 432.455 241.621 C 430.022 240.687, 424.725 240.930, 422.780 242.064 M 445.762 242.073 C 442.712 243.851, 441.694 246.846, 443.038 250.091 C 444.873 254.522, 447.338 253.368, 447.448 248.025 C 447.489 246.012, 448.007 245.500, 450 245.500 C 451.951 245.500, 452.567 246.073, 452.803 248.111 C 453.033 250.089, 451.856 252.090, 447.953 256.361 L 442.799 262 450.400 262 C 457.333 262, 458 261.825, 458 260 C 458 258.667, 457.333 258, 456 258 C 454.900 258, 454 257.773, 454 257.496 C 454 257.219, 454.900 255.314, 456 253.261 C 457.100 251.209, 458 248.510, 458 247.265 C 458 242.302, 450.691 239.201, 445.762 242.073 M 466 246.760 L 466 252.519 469.250 252.510 C 472.053 252.501, 472.500 252.844, 472.500 255 C 472.500 257.211, 472.121 257.470, 469.222 257.242 C 466.961 257.065, 465.751 257.484, 465.326 258.593 C 463.931 262.227, 472.627 263.373, 476 260 C 479.865 256.135, 477.454 248, 472.443 248 C 470.938 248, 470 247.424, 470 246.500 C 470 245.452, 471.056 245, 473.500 245 C 476.333 245, 477 244.619, 477 243 C 477 241.242, 476.333 241, 471.500 241 L 466 241 466 246.760 M 201.222 244.438 C 185.655 249.415, 180.792 268.096, 192.022 279.783 C 200.877 288.999, 216.713 287.695, 224.373 277.119 C 227.241 273.161, 227.500 272.155, 227.500 264.988 C 227.500 257.914, 227.214 256.766, 224.491 252.891 C 219.302 245.508, 209.272 241.864, 201.222 244.438 M 28 247.566 C 28 250.837, 28.220 251.107, 30.649 250.816 C 36.195 250.154, 35.950 244, 30.378 244 C 28.319 244, 28 244.478, 28 247.566 M 425.035 246.934 C 422.331 251.987, 425.905 259.191, 430.023 256.988 C 431.518 256.188, 432 254.890, 432 251.665 C 432 249.319, 431.460 246.860, 430.800 246.200 C 428.998 244.398, 426.202 244.754, 425.035 246.934 M 199.089 248.798 C 190.733 252.968, 187.054 262.616, 190.440 271.483 C 194.747 282.760, 209.082 286.502, 218.437 278.792 C 231.636 267.912, 223.906 246.856, 206.782 247.048 C 204.427 247.074, 200.965 247.862, 199.089 248.798 M 72.250 249.010 C 70.603 249.687, 70 250.762, 70 253.020 C 70 255.548, 70.541 256.293, 73 257.150 C 76.913 258.514, 76.942 260.438, 73.039 259.658 C 69.825 259.015, 67.856 260.661, 70.122 262.096 C 70.880 262.577, 72.937 262.976, 74.693 262.985 C 81.070 263.015, 82.339 256.220, 76.379 253.954 C 73.551 252.879, 73.989 250.923, 76.888 251.681 C 78.542 252.114, 80.797 250.464, 79.848 249.515 C 78.841 248.507, 74.217 248.200, 72.250 249.010 M 318.667 253.667 C 318.300 254.033, 318 255.460, 318 256.838 C 318 258.215, 317.389 260.053, 316.642 260.921 C 313.355 264.742, 313 269.237, 313 307.090 C 313 331.206, 313.362 345.106, 314 345.500 C 314.550 345.840, 315 347.351, 315 348.859 C 315 352.180, 316.639 354, 319.629 354 C 322.489 354, 325 351.482, 325 348.614 C 325 347.038, 326.033 345.878, 328.474 344.714 C 330.458 343.768, 332.191 342.080, 332.515 340.779 C 333.602 336.411, 332.585 316.691, 331.250 316.248 C 330.297 315.932, 330 318.671, 330 327.794 C 330 337.206, 329.680 340.020, 328.500 341 C 327.171 342.103, 327 338.072, 327 305.705 C 327 271.914, 326.856 268.829, 325.083 264.693 C 324.028 262.233, 322.678 259.919, 322.083 259.551 C 321.487 259.183, 321 257.559, 321 255.941 C 321 253.126, 320.092 252.241, 318.667 253.667 M 215.750 261.080 C 214.787 261.641, 214 263.224, 214 264.597 C 214 265.978, 212.881 268.132, 211.500 269.412 C 208.182 272.488, 208.162 276.661, 211.459 278.163 C 218.008 281.147, 226.639 266.782, 221.429 261.571 C 219.621 259.764, 218.219 259.642, 215.750 261.080 M 251.923 263.923 L 249 266.846 249 306.489 C 249 347.003, 249.159 348.835, 252.913 351.718 C 254.050 352.591, 260.926 352.945, 277.161 352.968 L 299.822 353 302.443 349.885 L 305.064 346.770 304.782 306.298 L 304.500 265.825 301.694 263.413 C 298.912 261.020, 298.702 261, 276.867 261 L 254.846 261 251.923 263.923 M 317.630 265.250 C 316.683 268.785, 316.819 269, 320 269 C 323.385 269, 323.352 269.056, 322.025 265.565 C 320.821 262.399, 318.440 262.228, 317.630 265.250 M 254 266 C 252.068 267.932, 252 269.333, 252 307.345 C 252 344.192, 252.116 346.795, 253.829 348.345 C 255.412 349.778, 258.563 350, 277.272 350 C 298.474 350, 298.916 349.958, 300.443 347.777 C 301.786 345.860, 302 340.316, 302 307.412 C 302 270.339, 301.942 269.196, 299.927 266.635 L 297.855 264 276.927 264 C 257.333 264, 255.873 264.127, 254 266 M 257 278 L 257 285 277 285 L 297 285 297 278 L 297 271 277 271 L 257 271 257 278 M 260 278 L 260 282 277 282 L 294 282 294 278 L 294 274 277 274 L 260 274 260 278 M 316 290.500 L 316 303 320 303 L 324 303 324 290.500 L 324 278 320 278 L 316 278 316 290.500 M 228.201 282.022 L 225.902 284.934 228.201 288.959 C 229.466 291.173, 230.838 292.988, 231.250 292.992 C 231.662 292.997, 232 289.850, 232 286 C 232 282.150, 231.662 279.025, 231.250 279.055 C 230.838 279.086, 229.466 280.421, 228.201 282.022 M 46.614 286.250 C 64.682 390.335, 157.780 464.201, 260.778 456.170 C 295.142 453.490, 324.577 444.068, 352.300 426.874 C 394.280 400.837, 426.502 359.485, 440.455 313.740 C 443.374 304.171, 446.946 288.568, 446.978 285.250 L 447 283 413.250 283.012 L 379.500 283.025 377.331 291.985 C 367.022 334.566, 331.219 372.207, 287.500 386.428 C 271.745 391.552, 264.928 392.505, 244.500 392.437 C 224.411 392.370, 220.306 391.765, 203.500 386.392 C 159.064 372.184, 122.785 333.061, 112.957 288.750 L 111.682 283 78.866 283 L 46.050 283 46.614 286.250 M 220.630 288.790 C 220.361 289.225, 221.453 291.688, 223.056 294.265 C 225.056 297.477, 226.447 298.766, 227.486 298.367 C 229.578 297.564, 229.403 296.566, 226.367 291.979 C 223.879 288.218, 221.723 287.021, 220.630 288.790 M 259.219 292.559 C 254.966 295.538, 257.435 303, 262.674 303 C 263.783 303, 265.435 302.177, 266.345 301.171 C 270.867 296.174, 264.700 288.720, 259.219 292.559 M 273.635 293.073 C 270.490 295.546, 270.272 298.272, 273 301 C 276.385 304.385, 281.044 303.039, 282.461 298.267 C 282.945 296.638, 282.443 295.352, 280.608 293.517 C 277.557 290.467, 276.994 290.431, 273.635 293.073 M 288.223 292.557 C 283.353 295.967, 287.156 304.400, 292.677 302.432 C 294.116 301.920, 295.743 300.782, 296.294 299.905 C 297.814 297.481, 296.358 293.484, 293.477 292.171 C 290.334 290.739, 290.873 290.700, 288.223 292.557 M 260.364 296.493 C 260.018 297.396, 260.214 298.614, 260.800 299.200 C 262.324 300.724, 265.210 299.331, 264.812 297.265 C 264.369 294.963, 261.165 294.407, 260.364 296.493 M 274.441 296.096 C 274.068 296.699, 274.448 297.877, 275.286 298.714 C 277.108 300.537, 279 299.634, 279 296.941 C 279 294.817, 275.618 294.190, 274.441 296.096 M 289.364 296.493 C 289.018 297.396, 289.214 298.614, 289.800 299.200 C 291.324 300.724, 294.210 299.331, 293.812 297.265 C 293.369 294.963, 290.165 294.407, 289.364 296.493 M 258.655 307.829 C 255.358 311.472, 257.625 317, 262.416 317 C 267.225 317, 269.697 310.846, 266.171 307.655 C 263.772 305.484, 260.713 305.555, 258.655 307.829 M 273 308 C 270.593 310.407, 270.499 311.840, 272.557 314.777 C 274.376 317.375, 279.109 317.778, 281.003 315.497 C 282.832 313.293, 282.523 308.856, 280.434 307.328 C 277.864 305.449, 275.321 305.679, 273 308 M 287.655 307.829 C 284.358 311.472, 286.625 317, 291.416 317 C 296.225 317, 298.697 310.846, 295.171 307.655 C 292.772 305.484, 289.713 305.555, 287.655 307.829 M 316 321 L 316 336 320 336 L 324 336 324 321 L 324 306 320 306 L 316 306 316 321 M 260.364 310.493 C 260.018 311.396, 260.214 312.614, 260.800 313.200 C 262.324 314.724, 265.210 313.331, 264.812 311.265 C 264.369 308.963, 261.165 308.407, 260.364 310.493 M 275.110 310.367 C 274.246 311.409, 274.346 312.042, 275.530 313.025 C 277.441 314.611, 279.574 312.939, 278.664 310.567 C 277.923 308.637, 276.608 308.563, 275.110 310.367 M 289.364 310.493 C 289.018 311.396, 289.214 312.614, 289.800 313.200 C 291.324 314.724, 294.210 313.331, 293.812 311.265 C 293.369 308.963, 290.165 308.407, 289.364 310.493 M 259.223 321.557 C 256.035 323.789, 256.236 328.454, 259.615 330.667 C 261.957 332.202, 262.506 332.227, 264.865 330.909 C 268.489 328.885, 269.016 323.825, 265.834 321.596 C 262.994 319.607, 262.014 319.601, 259.223 321.557 M 273 322 C 269.615 325.385, 270.961 330.044, 275.733 331.461 C 277.362 331.945, 278.648 331.443, 280.483 329.608 C 283.533 326.557, 283.569 325.994, 280.927 322.635 C 278.454 319.490, 275.728 319.272, 273 322 M 288.223 321.557 C 284.033 324.491, 286.550 332, 291.723 332 C 293.689 332, 297 328.236, 297 326 C 297 323.764, 293.689 320, 291.723 320 C 291.020 320, 289.445 320.701, 288.223 321.557 M 261.250 323.731 C 260.563 323.970, 260 325.060, 260 326.153 C 260 327.638, 260.565 328.059, 262.240 327.820 C 263.472 327.644, 264.619 326.769, 264.789 325.876 C 265.121 324.132, 263.287 323.020, 261.250 323.731 M 275.064 324.423 C 273.512 326.293, 274.497 328, 277.129 328 C 278.624 328, 279.057 327.443, 278.820 325.828 C 278.420 323.115, 276.688 322.466, 275.064 324.423 M 290.250 323.731 C 289.563 323.970, 289 325.060, 289 326.153 C 289 327.638, 289.565 328.059, 291.240 327.820 C 292.472 327.644, 293.619 326.769, 293.789 325.876 C 294.121 324.132, 292.287 323.020, 290.250 323.731 M 259.219 335.559 C 254.966 338.538, 257.435 346, 262.674 346 C 263.783 346, 265.435 345.177, 266.345 344.171 C 270.867 339.174, 264.700 331.720, 259.219 335.559 M 273.635 336.073 C 270.490 338.546, 270.272 341.272, 273 344 C 276.385 347.385, 281.044 346.039, 282.461 341.267 C 282.945 339.638, 282.443 338.352, 280.608 336.517 C 277.557 333.467, 276.994 333.431, 273.635 336.073 M 288.223 335.557 C 283.353 338.967, 287.156 347.400, 292.677 345.432 C 294.116 344.920, 295.743 343.782, 296.294 342.905 C 297.814 340.481, 296.358 336.484, 293.477 335.171 C 290.334 333.739, 290.873 333.700, 288.223 335.557 M 260.351 339.527 C 259.618 341.437, 261.623 343.082, 263.708 342.282 C 265.596 341.557, 264.894 338.603, 262.735 338.188 C 261.778 338.003, 260.705 338.606, 260.351 339.527 M 274.441 339.096 C 274.068 339.699, 274.448 340.877, 275.286 341.714 C 277.108 343.537, 279 342.634, 279 339.941 C 279 337.817, 275.618 337.190, 274.441 339.096 M 289.351 339.527 C 288.618 341.437, 290.623 343.082, 292.708 342.282 C 294.596 341.557, 293.894 338.603, 291.735 338.188 C 290.778 338.003, 289.705 338.606, 289.351 339.527 M 318.180 348.250 C 318.356 349.488, 319.175 350.500, 320 350.500 C 320.825 350.500, 321.644 349.488, 321.820 348.250 C 322.065 346.518, 321.646 346, 320 346 C 318.354 346, 317.935 346.518, 318.180 348.250 M 147.081 373.402 C 146.152 374.522, 146.529 375.240, 148.949 376.964 L 151.980 379.122 144.399 389.134 C 137.298 398.510, 136.934 399.232, 138.658 400.505 C 140.864 402.134, 140.248 402.695, 148.814 391.253 L 155.737 382.005 158.276 384.003 C 159.673 385.101, 161.259 386, 161.801 386 C 162.687 386, 164.437 382.943, 163.774 382.553 C 163.623 382.465, 160.472 380.054, 156.771 377.196 C 149.467 371.555, 148.823 371.303, 147.081 373.402 M 331.238 377.695 C 326.422 381.388, 324.271 383.641, 324.852 384.382 C 325.335 384.997, 329.058 390, 333.126 395.500 C 337.193 401, 340.791 405.725, 341.119 406 C 342.055 406.783, 357 395.729, 357 394.254 C 357 391.354, 353.855 392.044, 348.442 396.132 L 342.752 400.427 340.359 397.464 L 337.966 394.500 340.251 392.500 C 341.508 391.400, 343.878 389.515, 345.518 388.311 C 348.297 386.271, 348.387 386.007, 346.846 384.442 C 345.299 382.872, 344.877 383.002, 340.356 386.454 L 335.522 390.145 333.261 387.517 C 332.017 386.071, 331.010 384.576, 331.022 384.194 C 331.033 383.812, 333.508 381.734, 336.522 379.575 C 339.535 377.416, 342 375.369, 342 375.025 C 342 374.221, 339.770 371.981, 339.050 372.063 C 338.748 372.097, 335.232 374.632, 331.238 377.695 M 163.139 399.696 C 157.204 411.611, 156.926 412.473, 158.622 413.713 C 160.230 414.888, 160.680 414.619, 162.709 411.267 C 163.963 409.195, 165.124 407.103, 165.289 406.618 C 165.453 406.133, 167.008 406.470, 168.744 407.368 C 173.177 409.660, 176.367 409.403, 179.850 406.473 C 186.102 401.212, 184.589 394.271, 176.193 389.702 C 173.463 388.216, 170.832 387, 170.346 387 C 169.860 387, 166.617 392.713, 163.139 399.696 M 310.328 390.938 C 305.432 393.161, 303.021 396.427, 302.298 401.815 C 301.581 407.158, 304.834 414.319, 309.182 416.970 C 314.891 420.450, 323.985 419.098, 328.433 414.107 C 330.227 412.094, 330.248 411.819, 328.722 410.294 C 327.197 408.768, 326.893 408.834, 324.514 411.213 C 317.691 418.037, 307 413.007, 307 402.973 C 307 398.741, 311.715 394, 315.923 394 C 318.538 394, 319 393.625, 319 391.500 C 319 388.384, 316.333 388.212, 310.328 390.938 M 169.908 397.181 C 167.864 401.187, 167.850 401.417, 169.578 402.681 C 173.368 405.452, 179 403.252, 179 399.001 C 179 397.238, 174.682 393, 172.885 393 C 172.421 393, 171.081 394.881, 169.908 397.181 M 289.352 399.765 C 288.721 400.169, 287.688 404.758, 287.056 409.963 C 286.424 415.168, 285.780 419.553, 285.625 419.708 C 285.470 419.863, 282.767 416.392, 279.619 411.995 C 273.982 404.122, 273.098 403.471, 269.879 404.820 C 268.575 405.367, 270.235 408.041, 278.366 418.495 C 284.270 426.085, 288.598 430.849, 288.772 429.948 C 288.935 429.100, 290.097 421.789, 291.353 413.703 C 293.380 400.655, 293.461 399.002, 292.069 399.015 C 291.206 399.024, 289.984 399.361, 289.352 399.765 M 195.450 401.354 C 186.527 405.394, 183.345 417.084, 189.157 424.473 C 197.841 435.512, 215.992 429.037, 215.998 414.898 C 216.003 405.284, 204.100 397.439, 195.450 401.354 M 196.110 406.396 C 190.433 409.542, 189.370 417.144, 193.898 422.211 C 200.137 429.195, 211 424.556, 211 414.907 C 211 407.161, 202.990 402.582, 196.110 406.396 M 258.752 416.512 C 259.367 428.570, 258.319 431, 252.500 431 C 247.313 431, 246.121 428.693, 245.367 417.191 C 244.718 407.284, 244.632 407, 242.298 407 C 239.899 407, 239.896 407.012, 240.496 415.750 C 241.429 429.345, 241.771 430.630, 245.239 433.547 C 247.959 435.837, 249.091 436.150, 253.215 435.753 C 262.318 434.879, 264.444 430.831, 263.456 416.250 C 262.792 406.460, 262.659 406, 260.488 406 C 258.235 406, 258.220 406.089, 258.752 416.512" stroke="none" fill="#eaa292" fill-rule="evenodd"/></svg>